<svg width="1100" height="500" viewBox="0 0 1100 500" fill="none" xmlns="http://www.w3.org/2000/svg">
<rect width="1100" height="500" rx="100" fill="#252C40"/>
<rect x="154.608" y="145.978" width="35" height="200" rx="15" transform="rotate(-90 154.608 145.978)" fill="#E6F0FF"/>
<path d="M376.403 194.368C379.656 186.749 376.117 177.936 368.498 174.683C360.879 171.43 352.066 174.969 348.813 182.588L376.403 194.368ZM269.608 236.978H254.608V249.603L267.048 251.758L269.608 236.978ZM312.108 236.978L316.264 251.391L312.108 236.978ZM344.108 218.478L333.589 207.785H333.589L344.108 218.478ZM254.608 145.978V236.978H284.608V145.978H254.608ZM269.608 236.978C267.048 251.758 267.05 251.758 267.052 251.759C267.053 251.759 267.055 251.759 267.057 251.76C267.06 251.76 267.064 251.761 267.068 251.761C267.077 251.763 267.087 251.765 267.099 251.767C267.122 251.771 267.152 251.776 267.188 251.782C267.261 251.794 267.358 251.81 267.48 251.83C267.724 251.87 268.065 251.925 268.494 251.991C269.35 252.124 270.562 252.302 272.055 252.497C275.028 252.887 279.173 253.356 283.881 253.67C292.783 254.262 305.628 254.458 316.264 251.391L307.951 222.565C302.641 224.097 294.236 224.293 285.875 223.736C281.951 223.475 278.461 223.081 275.957 222.752C274.711 222.589 273.724 222.443 273.066 222.342C272.738 222.291 272.493 222.252 272.34 222.227C272.263 222.214 272.21 222.205 272.181 222.2C272.166 222.198 272.158 222.196 272.156 222.196C272.155 222.196 272.155 222.196 272.157 222.196C272.158 222.196 272.16 222.197 272.161 222.197C272.162 222.197 272.164 222.197 272.164 222.197C272.166 222.198 272.168 222.198 269.608 236.978ZM316.264 251.391C332.376 246.744 342.446 241.154 354.627 229.171L333.589 207.785C325.189 216.048 319.579 219.212 307.951 222.565L316.264 251.391ZM354.627 229.171C361.225 222.681 366.721 213.495 370.236 206.986C372.097 203.539 373.616 200.437 374.672 198.19C375.202 197.063 375.621 196.14 375.913 195.484C376.06 195.156 376.175 194.894 376.257 194.706C376.298 194.611 376.331 194.535 376.355 194.479C376.368 194.451 376.378 194.427 376.386 194.409C376.39 194.399 376.393 194.391 376.396 194.385C376.397 194.381 376.399 194.378 376.4 194.375C376.401 194.374 376.401 194.372 376.402 194.372C376.402 194.37 376.403 194.368 362.608 188.478C348.813 182.588 348.813 182.586 348.814 182.585C348.814 182.585 348.815 182.583 348.815 182.582C348.816 182.581 348.816 182.58 348.817 182.579C348.817 182.577 348.818 182.576 348.817 182.577C348.817 182.578 348.814 182.584 348.81 182.594C348.801 182.616 348.784 182.655 348.759 182.712C348.709 182.827 348.628 183.011 348.518 183.258C348.297 183.753 347.96 184.495 347.523 185.426C346.643 187.296 345.376 189.884 343.839 192.731C340.557 198.809 336.803 204.622 333.589 207.785L354.627 229.171Z" fill="#E6F0FF"/>
<path d="M376.403 340.632C379.656 348.251 376.117 357.064 368.498 360.317C360.879 363.57 352.066 360.031 348.813 352.412L376.403 340.632ZM269.608 298.022H254.608V285.397L267.048 283.242L269.608 298.022ZM312.108 298.022L316.264 283.609L312.108 298.022ZM344.108 316.522L333.589 327.215H333.589L344.108 316.522ZM254.608 389.022V298.022H284.608V389.022H254.608ZM269.608 298.022C267.048 283.242 267.05 283.242 267.052 283.241C267.053 283.241 267.055 283.241 267.057 283.241C267.06 283.24 267.064 283.239 267.068 283.239C267.077 283.237 267.087 283.235 267.099 283.233C267.122 283.229 267.152 283.224 267.188 283.218C267.261 283.206 267.358 283.19 267.48 283.17C267.724 283.13 268.065 283.075 268.494 283.009C269.35 282.877 270.562 282.699 272.055 282.503C275.028 282.113 279.173 281.644 283.881 281.331C292.783 280.738 305.628 280.542 316.264 283.609L307.951 312.435C302.641 310.903 294.236 310.707 285.875 311.264C281.951 311.526 278.461 311.919 275.957 312.248C274.711 312.411 273.724 312.557 273.066 312.658C272.738 312.709 272.493 312.748 272.34 312.773C272.263 312.786 272.21 312.795 272.181 312.8C272.166 312.802 272.158 312.804 272.156 312.804C272.155 312.804 272.155 312.804 272.157 312.804C272.158 312.804 272.16 312.803 272.161 312.803C272.162 312.803 272.164 312.803 272.164 312.803C272.166 312.802 272.168 312.802 269.608 298.022ZM316.264 283.609C332.376 288.256 342.446 293.846 354.627 305.829L333.589 327.215C325.189 318.952 319.579 315.788 307.951 312.435L316.264 283.609ZM354.627 305.829C361.225 312.319 366.721 321.506 370.236 328.015C372.097 331.461 373.616 334.563 374.672 336.81C375.202 337.937 375.621 338.86 375.913 339.516C376.06 339.844 376.175 340.106 376.257 340.295C376.298 340.389 376.331 340.465 376.355 340.521C376.368 340.549 376.378 340.573 376.386 340.591C376.39 340.601 376.393 340.609 376.396 340.615C376.397 340.619 376.399 340.622 376.4 340.625C376.401 340.626 376.401 340.628 376.402 340.629C376.402 340.63 376.403 340.632 362.608 346.522C348.813 352.412 348.813 352.414 348.814 352.415C348.814 352.416 348.815 352.417 348.815 352.418C348.816 352.419 348.816 352.42 348.817 352.421C348.817 352.423 348.818 352.424 348.817 352.423C348.817 352.422 348.814 352.416 348.81 352.406C348.801 352.385 348.784 352.345 348.759 352.288C348.709 352.174 348.628 351.989 348.518 351.742C348.297 351.248 347.96 350.505 347.523 349.574C346.643 347.704 345.376 345.116 343.839 342.269C340.557 336.191 336.803 330.378 333.589 327.215L354.627 305.829Z" fill="#E6F0FF"/>
<rect x="200.608" y="145.978" width="35" height="243" fill="#E6F0FF"/>
<path d="M147.608 207.978C139.372 207.09 131.975 213.047 131.087 221.284C130.199 229.52 136.156 236.917 144.392 237.805L147.608 207.978ZM259.342 220.024L147.608 207.978L144.392 237.805L256.126 249.852L259.342 220.024Z" fill="#E6F0FF"/>
<path d="M618.207 323.941C605.023 323.941 597.504 316.129 597.504 302.262V213.59H576.703C565.766 213.59 558.441 207.633 558.441 197.086C558.441 186.539 565.57 180.582 576.703 180.582H659.711C670.844 180.582 677.973 186.539 677.973 197.086C677.973 207.633 670.648 213.59 659.711 213.59H638.91V302.262C638.91 316.129 631.391 323.941 618.207 323.941ZM722.016 324.234C686.664 324.234 665.668 303.238 665.668 268.18C665.668 232.926 686.859 210.953 720.746 210.953C754.145 210.953 775.727 232.242 775.727 261.246C775.727 270.816 770.258 276.09 760.297 276.09H704.242V278.629C704.242 289.176 711.859 296.793 722.602 296.793C731.293 296.793 737.543 294.156 745.16 287.418C749.359 283.707 752.484 282.438 757.367 282.438C765.082 282.438 772.016 287.418 772.016 296.012C772.016 299.039 771.137 301.969 769.379 304.801C762.152 316.812 743.988 324.234 722.016 324.234ZM704.828 254.41H738.422C737.738 244.742 731 238.492 721.625 238.492C712.543 238.492 705.609 245.133 704.828 254.41ZM808.441 323.941C796.723 323.941 788.422 317.398 788.422 303.238V198.844C788.422 184.684 796.723 178.141 808.441 178.141C820.16 178.141 828.461 184.684 828.461 198.941V251.676H829.242L859.516 219.742C865.18 213.785 869.867 211.246 876.117 211.246C886.664 211.246 894.281 218.668 894.281 228.922C894.281 235.27 892.328 239.078 886.273 244.742L867.523 262.223L887.641 290.152C892.23 296.598 893.598 300.113 893.598 305.289C893.598 316.52 885.785 323.941 874.164 323.941C864.691 323.941 859.613 320.426 852.68 309.293L837.055 284L828.461 291.812V303.238C828.461 317.398 820.16 323.941 808.441 323.941ZM926.117 204.801C914.789 204.801 906.195 196.598 906.195 185.855C906.195 175.113 914.789 166.91 926.117 166.91C937.445 166.91 946.039 175.113 946.039 185.855C946.039 196.598 937.445 204.801 926.117 204.801ZM926.117 323.941C913.422 323.941 906.098 316.422 906.098 303.238V231.949C906.098 218.766 913.422 211.246 926.117 211.246C938.812 211.246 946.137 218.863 946.137 232.047V303.238C946.137 316.422 938.812 323.941 926.117 323.941Z" fill="#E6F0FF"/>
</svg>
